<svg width="20" height="21" viewBox="0 0 20 21" fill="none" xmlns="http://www.w3.org/2000/svg">
<path d="M14.7917 2.73767C16.2874 2.73767 17.5 3.95003 17.5 5.44557V15.0274C17.5 16.5229 16.2874 17.7353 14.7917 17.7353H5.20833C3.71256 17.7353 2.5 16.5229 2.5 15.0274V5.44557C2.5 3.95003 3.71256 2.73767 5.20833 2.73767H14.7917ZM16.25 7.32027H3.75V15.0274C3.75 15.8326 4.40292 16.4855 5.20833 16.4855H14.7917C15.5971 16.4855 16.25 15.8326 16.25 15.0274V7.32027ZM6.45833 12.3195C7.03363 12.3195 7.5 12.7857 7.5 13.361C7.5 13.9362 7.03363 14.4025 6.45833 14.4025C5.88303 14.4025 5.41667 13.9362 5.41667 13.361C5.41667 12.7857 5.88303 12.3195 6.45833 12.3195ZM10 12.3195C10.5753 12.3195 11.0417 12.7857 11.0417 13.361C11.0417 13.9362 10.5753 14.4025 10 14.4025C9.42467 14.4025 8.95833 13.9362 8.95833 13.361C8.95833 12.7857 9.42467 12.3195 10 12.3195ZM6.45833 8.98666C7.03363 8.98666 7.5 9.45292 7.5 10.0282C7.5 10.6034 7.03363 11.0697 6.45833 11.0697C5.88303 11.0697 5.41667 10.6034 5.41667 10.0282C5.41667 9.45292 5.88303 8.98666 6.45833 8.98666ZM10 8.98666C10.5753 8.98666 11.0417 9.45292 11.0417 10.0282C11.0417 10.6034 10.5753 11.0697 10 11.0697C9.42467 11.0697 8.95833 10.6034 8.95833 10.0282C8.95833 9.45292 9.42467 8.98666 10 8.98666ZM13.5417 8.98666C14.117 8.98666 14.5833 9.45292 14.5833 10.0282C14.5833 10.6034 14.117 11.0697 13.5417 11.0697C12.9663 11.0697 12.5 10.6034 12.5 10.0282C12.5 9.45292 12.9663 8.98666 13.5417 8.98666ZM14.7917 3.98747H5.20833C4.40292 3.98747 3.75 4.64028 3.75 5.44557V6.07047H16.25V5.44557C16.25 4.64028 15.5971 3.98747 14.7917 3.98747Z" fill="#6D6D6D"/>
</svg>
