<svg width="15" height="15" viewBox="0 0 15 15" fill="none" xmlns="http://www.w3.org/2000/svg">
<path d="M15 6.69788C15 3.00887 11.6399 0 7.5 0C3.36011 0 0 3.00887 0 6.69788C0 10.3869 3.3672 13.4032 7.5 13.4032C7.7552 13.4032 8.02457 13.3884 8.30813 13.3588C9.70463 14.7265 11.3847 15 12.4835 15C13.1498 15 13.6035 14.8965 13.6531 14.8891C13.9579 14.8226 14.1777 14.5564 14.206 14.2311C14.2415 13.9133 14.0643 13.6102 13.7807 13.4845C13.327 13.2849 12.8946 12.6417 12.5543 11.6511C14.1139 10.3869 15 8.60522 15 6.69788ZM4.16115 8.1173C4.16115 7.71069 4.48015 7.37802 4.87004 7.37802H9.76134C10.1583 7.37802 10.4702 7.71069 10.4702 8.1173C10.4702 8.5239 10.1583 8.85658 9.76134 8.85658H4.87004C4.48015 8.85658 4.16115 8.5239 4.16115 8.1173ZM10.4702 5.38935C10.4702 5.79596 10.1583 6.12863 9.76134 6.12863H4.87004C4.48015 6.12863 4.16115 5.79596 4.16115 5.38935C4.16115 4.98275 4.48015 4.65007 4.87004 4.65007H9.76134C10.1583 4.65007 10.4702 4.98275 10.4702 5.38935Z" fill="black"/>
</svg>
