<svg width="20" height="21" viewBox="0 0 20 21" fill="none" xmlns="http://www.w3.org/2000/svg">
<path d="M2.91669 10.2364C2.91669 6.32503 6.088 3.15422 10 3.15422C13.912 3.15422 17.0834 6.32503 17.0834 10.2364C17.0834 14.1478 13.912 17.3186 10 17.3186C6.088 17.3186 2.91669 14.1478 2.91669 10.2364ZM10 1.90442C5.39765 1.90442 1.66669 5.63478 1.66669 10.2364C1.66669 14.838 5.39765 18.5684 10 18.5684C14.6024 18.5684 18.3334 14.838 18.3334 10.2364C18.3334 5.63478 14.6024 1.90442 10 1.90442ZM9.99427 5.77736C9.95294 5.47246 9.69127 5.23722 9.37502 5.23722C9.03002 5.23722 8.75002 5.51717 8.75002 5.86212V10.8613L8.75577 10.946C8.7971 11.251 9.05877 11.4862 9.37502 11.4862H12.7084L12.7931 11.4805C13.0981 11.4391 13.3334 11.1775 13.3334 10.8613C13.3334 10.5164 13.0534 10.2364 12.7084 10.2364H10V5.86212L9.99427 5.77736Z" fill="#6D6D6D"/>
</svg>
