<svg width="24" height="30" viewBox="0 0 24 30" fill="none" xmlns="http://www.w3.org/2000/svg">
<path d="M0.887902 30H23.1121C23.6004 30 24 29.5945 24 29.0988V22.9979C24 18.3208 20.7769 14.3917 16.4706 13.3914C18.2198 12.0216 19.3563 9.87684 19.3563 7.4617C19.3563 3.35236 16.0533 0 12.0044 0C7.95561 0 4.64373 3.35236 4.64373 7.4617C4.64373 9.87684 5.78024 12.0216 7.52941 13.3914C3.22309 14.4007 0 18.3208 0 22.9979V29.0988C0 29.5945 0.399556 30 0.887902 30ZM6.41953 7.4617C6.41953 4.34365 8.92342 1.80234 12.0044 1.80234C15.0855 1.80234 17.5805 4.34365 17.5805 7.4617C17.5805 10.5798 15.0766 13.1301 12.0044 13.1301C8.9323 13.1301 6.41953 10.5888 6.41953 7.4617ZM1.7758 22.9979C1.7758 18.8615 4.85683 15.4461 8.81687 14.9865L9.82908 17.0412L7.81354 23.9441C7.69811 24.3226 7.84906 24.7281 8.1687 24.9444L11.4095 27.1523L11.5072 27.2244C11.5339 27.2424 11.5516 27.2514 11.5782 27.2604C11.596 27.2785 11.6049 27.2785 11.6226 27.2875C11.6759 27.3145 11.7292 27.3325 11.7913 27.3506C11.8624 27.3686 11.9334 27.3776 12.0044 27.3776C12.0666 27.3776 12.1376 27.3686 12.1998 27.3506C12.2797 27.3415 12.3507 27.3055 12.4218 27.2604C12.4484 27.2514 12.4661 27.2424 12.4928 27.2244L12.5905 27.1523L15.8313 24.9444C16.1598 24.7281 16.3019 24.3226 16.1865 23.9441L14.1709 17.0412L15.1831 14.9865C19.1343 15.4461 22.2242 18.8615 22.2242 22.9979V28.1977H1.7758V22.9979Z" fill="white"/>
</svg>
