<svg width="35" height="35" viewBox="0 0 35 35" fill="none" xmlns="http://www.w3.org/2000/svg">
<path d="M28.7656 4.59375H5.6875C4.42969 4.59375 3.44531 5.63281 3.44531 6.83594V28.9297C3.44531 30.1875 4.48437 31.1719 5.6875 31.1719H28.7656C30.0234 31.1719 31.0078 30.1328 31.0078 28.9297V6.83594C31.0078 5.63281 30.0234 4.59375 28.7656 4.59375ZM28.8203 28.9297C28.8203 28.9844 28.7656 28.9844 28.7656 28.9844H5.6875C5.63281 28.9844 5.63281 28.9297 5.63281 28.9297V6.83594C5.63281 6.78125 5.6875 6.78125 5.6875 6.78125H28.7656C28.8203 6.78125 28.8203 6.83594 28.8203 6.83594V28.9297Z" fill="black"/>
<path d="M16.5156 14.3281C16.5156 12.7422 15.2578 11.4844 13.6719 11.4844C12.0859 11.4844 10.8281 12.7422 10.8281 14.3281C10.8281 15.9141 12.0859 17.1719 13.6719 17.1719C15.2578 17.1719 16.5156 15.9141 16.5156 14.3281ZM12.9609 14.3281C12.9609 13.9453 13.2344 13.6719 13.6172 13.6719C14 13.6719 14.2734 13.9453 14.2734 14.3281C14.2734 14.7109 14 14.9844 13.6172 14.9844C13.2344 14.9844 12.9609 14.7109 12.9609 14.3281Z" fill="black"/>
<path d="M20.8359 18.5938C19.25 18.5938 17.9922 19.8516 17.9922 21.4375C17.9922 23.0234 19.25 24.2813 20.8359 24.2813C22.4219 24.2813 23.6797 23.0234 23.6797 21.4375C23.6797 19.8516 22.3672 18.5938 20.8359 18.5938ZM20.8359 22.0938C20.4531 22.0938 20.1797 21.8203 20.1797 21.4375C20.1797 21.0547 20.4531 20.7812 20.8359 20.7812C21.2187 20.7812 21.4922 21.0547 21.4922 21.4375C21.4922 21.8203 21.1641 22.0938 20.8359 22.0938Z" fill="black"/>
<path d="M20.6719 15.4764C21.0547 15.0389 21.1094 14.3827 20.6719 13.9452C20.2891 13.5624 19.5234 13.5077 19.1406 13.9452C17.4453 16.0233 15.6953 18.1014 14 20.1795C13.7813 20.453 13.5078 20.7811 13.2891 21.0545C12.9063 21.492 12.8516 22.1483 13.2891 22.5858C13.6719 22.9686 14.4375 23.0233 14.8203 22.5858C16.5156 20.5077 18.2656 18.4295 19.9609 16.3514C20.1797 16.078 20.4531 15.8045 20.6719 15.4764Z" fill="black"/>
<path d="M25.8672 8.20312C24.3906 8.20312 22.9141 8.20312 21.4375 8.20312C21.2188 8.20312 21 8.20312 20.8359 8.20312C20.2891 8.20312 19.7422 8.69531 19.7422 9.29688C19.7422 9.89844 20.2344 10.3906 20.8359 10.3906H25.2656H25.8672C26.4141 10.3906 26.9609 9.89844 26.9609 9.29688C26.9062 8.69531 26.4687 8.20312 25.8672 8.20312Z" fill="black"/>
</svg>
