<svg width="40" height="40" viewBox="0 0 40 40" fill="none" xmlns="http://www.w3.org/2000/svg">
<path d="M20 0.5C30.7696 0.5 39.5 9.23045 39.5 20C39.5 30.7696 30.7696 39.5 20 39.5C9.23045 39.5 0.5 30.7696 0.5 20C0.5 9.23045 9.23045 0.5 20 0.5Z" fill="white" fill-opacity="0.1"/>
<path d="M20 0.5C30.7696 0.5 39.5 9.23045 39.5 20C39.5 30.7696 30.7696 39.5 20 39.5C9.23045 39.5 0.5 30.7696 0.5 20C0.5 9.23045 9.23045 0.5 20 0.5Z" stroke="white"/>
<path d="M25 11.667H22.5C21.3949 11.667 20.3351 12.106 19.5537 12.8874C18.7723 13.6688 18.3333 14.7286 18.3333 15.8337V18.3337H15.8333V21.667H18.3333V28.3337H21.6666V21.667H24.1666L25 18.3337H21.6666V15.8337C21.6666 15.6126 21.7544 15.4007 21.9107 15.2444C22.067 15.0881 22.279 15.0003 22.5 15.0003H25V11.667Z" stroke="white" stroke-width="1.66667" stroke-linecap="round" stroke-linejoin="round"/>
</svg>
