<svg width="28" height="28" viewBox="0 0 28 28" fill="none" xmlns="http://www.w3.org/2000/svg">
<path d="M24.99 12.7424C25.1989 12.6503 25.3761 12.4989 25.4998 12.307C25.6234 12.1152 25.6881 11.8912 25.6857 11.663C25.6834 11.4347 25.6141 11.2121 25.4865 11.0229C25.3589 10.8336 25.1786 10.6859 24.9678 10.5981L14.9683 6.04342C14.6644 5.90476 14.3341 5.83301 14 5.83301C13.6659 5.83301 13.3357 5.90476 13.0317 6.04342L3.03334 10.5934C2.82564 10.6844 2.64894 10.8339 2.52487 11.0237C2.40079 11.2135 2.33472 11.4353 2.33472 11.6621C2.33472 11.8888 2.40079 12.1107 2.52487 12.3005C2.64894 12.4903 2.82564 12.6398 3.03334 12.7308L13.0317 17.2901C13.3357 17.4287 13.6659 17.5005 14 17.5005C14.3341 17.5005 14.6644 17.4287 14.9683 17.2901L24.99 12.7424Z" stroke="white" stroke-width="2.33333" stroke-linecap="round" stroke-linejoin="round"/>
<path d="M25.6666 11.6665V18.6665" stroke="white" stroke-width="2.33333" stroke-linecap="round" stroke-linejoin="round"/>
<path d="M7 14.5835V18.6668C7 19.5951 7.7375 20.4853 9.05025 21.1417C10.363 21.7981 12.1435 22.1668 14 22.1668C15.8565 22.1668 17.637 21.7981 18.9497 21.1417C20.2625 20.4853 21 19.5951 21 18.6668V14.5835" stroke="white" stroke-width="2.33333" stroke-linecap="round" stroke-linejoin="round"/>
</svg>
