<svg width="28" height="28" viewBox="0 0 28 28" fill="none" xmlns="http://www.w3.org/2000/svg">
<path d="M18.6666 23.3335V4.66683C18.6666 4.04799 18.4208 3.4545 17.9832 3.01691C17.5456 2.57933 16.9522 2.3335 16.3333 2.3335H11.6666C11.0478 2.3335 10.4543 2.57933 10.0167 3.01691C9.57915 3.4545 9.33331 4.04799 9.33331 4.66683V23.3335" stroke="white" stroke-width="2.33333" stroke-linecap="round" stroke-linejoin="round"/>
<path d="M23.3333 7H4.66665C3.37798 7 2.33331 8.04467 2.33331 9.33333V21C2.33331 22.2887 3.37798 23.3333 4.66665 23.3333H23.3333C24.622 23.3333 25.6666 22.2887 25.6666 21V9.33333C25.6666 8.04467 24.622 7 23.3333 7Z" stroke="white" stroke-width="2.33333" stroke-linecap="round" stroke-linejoin="round"/>
</svg>
