<svg width="40" height="40" viewBox="0 0 40 40" fill="none" xmlns="http://www.w3.org/2000/svg">
<path d="M20 0.5C30.7696 0.5 39.5 9.23045 39.5 20C39.5 30.7696 30.7696 39.5 20 39.5C9.23045 39.5 0.5 30.7696 0.5 20C0.5 9.23045 9.23045 0.5 20 0.5Z" fill="white" fill-opacity="0.1"/>
<path d="M20 0.5C30.7696 0.5 39.5 9.23045 39.5 20C39.5 30.7696 30.7696 39.5 20 39.5C9.23045 39.5 0.5 30.7696 0.5 20C0.5 9.23045 9.23045 0.5 20 0.5Z" stroke="white"/>
<path d="M24.1667 11.667H15.8334C13.5322 11.667 11.6667 13.5325 11.6667 15.8337V24.167C11.6667 26.4682 13.5322 28.3337 15.8334 28.3337H24.1667C26.4679 28.3337 28.3334 26.4682 28.3334 24.167V15.8337C28.3334 13.5325 26.4679 11.667 24.1667 11.667Z" stroke="white" stroke-width="1.66667" stroke-linecap="round" stroke-linejoin="round"/>
<path d="M23.3333 19.4753C23.4362 20.1688 23.3177 20.8771 22.9948 21.4994C22.6719 22.1218 22.1609 22.6264 21.5347 22.9416C20.9084 23.2569 20.1987 23.3666 19.5065 23.2552C18.8143 23.1438 18.1748 22.817 17.679 22.3212C17.1832 21.8255 16.8564 21.186 16.745 20.4938C16.6336 19.8015 16.7434 19.0918 17.0586 18.4656C17.3738 17.8393 17.8785 17.3284 18.5008 17.0055C19.1231 16.6825 19.8314 16.5641 20.525 16.6669C21.2324 16.7718 21.8874 17.1015 22.3931 17.6072C22.8988 18.1129 23.2284 18.7678 23.3333 19.4753Z" stroke="white" stroke-width="1.66667" stroke-linecap="round" stroke-linejoin="round"/>
<path d="M24.5833 15.417H24.5916" stroke="white" stroke-width="1.66667" stroke-linecap="round" stroke-linejoin="round"/>
</svg>
