<svg width="51" height="38" viewBox="0 0 51 38" fill="none" xmlns="http://www.w3.org/2000/svg">
<path d="M23.1445 0L24.5508 2.40234C19.082 5.29297 15.3906 7.87109 13.4766 10.1367C12.2266 11.6602 11.6016 13.1055 11.6016 14.4727C11.6016 15.8398 12.5977 17.4609 14.5898 19.3359C16.6211 21.2109 17.9883 22.832 18.6914 24.1992C19.1992 25.1758 19.4531 26.3086 19.4531 27.5977C19.4531 30.2148 18.5156 32.4609 16.6406 34.3359C14.7656 36.2109 12.4414 37.1484 9.66797 37.1484C6.93359 37.1484 4.62891 36.1523 2.75391 34.1602C0.917969 32.1289 0 29.5508 0 26.4258C0 21.582 1.48438 17.2266 4.45312 13.3594C8.39844 8.28125 14.6289 3.82812 23.1445 0ZM48.9844 0L50.4492 2.57812C44.8633 5.50781 41.1914 8.02734 39.4336 10.1367C38.2227 11.6211 37.6172 13.125 37.6172 14.6484C37.6172 16.0547 38.6914 17.7344 40.8398 19.6875C43.8477 22.3828 45.3516 25.0391 45.3516 27.6562C45.3516 30.2734 44.3945 32.5586 42.4805 34.5117C40.6055 36.4258 38.3789 37.3828 35.8008 37.3828C33.1445 37.3828 30.8203 36.3281 28.8281 34.2188C26.8359 32.0703 25.8398 29.4531 25.8398 26.3672C25.8398 21.5234 27.4805 17.0313 30.7617 12.8906C34.9023 7.57812 40.9766 3.28125 48.9844 0Z" fill="white"/>
</svg>
