<svg width="40" height="40" viewBox="0 0 40 40" fill="none" xmlns="http://www.w3.org/2000/svg">
<path d="M20 0.5C30.7696 0.5 39.5 9.23045 39.5 20C39.5 30.7696 30.7696 39.5 20 39.5C9.23045 39.5 0.5 30.7696 0.5 20C0.5 9.23045 9.23045 0.5 20 0.5Z" fill="white" fill-opacity="0.1"/>
<path d="M20 0.5C30.7696 0.5 39.5 9.23045 39.5 20C39.5 30.7696 30.7696 39.5 20 39.5C9.23045 39.5 0.5 30.7696 0.5 20C0.5 9.23045 9.23045 0.5 20 0.5Z" stroke="white"/>
<path d="M23.3333 16.667C24.6594 16.667 25.9312 17.1938 26.8688 18.1315C27.8065 19.0691 28.3333 20.3409 28.3333 21.667V27.5003H25V21.667C25 21.225 24.8244 20.801 24.5118 20.4885C24.1993 20.1759 23.7753 20.0003 23.3333 20.0003C22.8913 20.0003 22.4674 20.1759 22.1548 20.4885C21.8422 20.801 21.6666 21.225 21.6666 21.667V27.5003H18.3333V21.667C18.3333 20.3409 18.8601 19.0691 19.7978 18.1315C20.7355 17.1938 22.0072 16.667 23.3333 16.667Z" stroke="white" stroke-width="1.66667" stroke-linecap="round" stroke-linejoin="round"/>
<path d="M15 17.5H11.6667V27.5H15V17.5Z" stroke="white" stroke-width="1.66667" stroke-linecap="round" stroke-linejoin="round"/>
<path d="M13.3334 15.0003C14.2538 15.0003 15 14.2541 15 13.3337C15 12.4132 14.2538 11.667 13.3334 11.667C12.4129 11.667 11.6667 12.4132 11.6667 13.3337C11.6667 14.2541 12.4129 15.0003 13.3334 15.0003Z" stroke="white" stroke-width="1.66667" stroke-linecap="round" stroke-linejoin="round"/>
</svg>
