<svg width="28" height="28" viewBox="0 0 28 28" fill="none" xmlns="http://www.w3.org/2000/svg">
<path d="M14 25.6668C20.4433 25.6668 25.6667 20.4435 25.6667 14.0002C25.6667 7.55684 20.4433 2.3335 14 2.3335C7.55667 2.3335 2.33333 7.55684 2.33333 14.0002C2.33333 20.4435 7.55667 25.6668 14 25.6668Z" stroke="black" stroke-width="2.33333" stroke-linecap="round" stroke-linejoin="round"/>
<path d="M14 21C17.866 21 21 17.866 21 14C21 10.134 17.866 7 14 7C10.134 7 7 10.134 7 14C7 17.866 10.134 21 14 21Z" stroke="black" stroke-width="2.33333" stroke-linecap="round" stroke-linejoin="round"/>
<path d="M14 16.3332C15.2887 16.3332 16.3333 15.2885 16.3333 13.9998C16.3333 12.7112 15.2887 11.6665 14 11.6665C12.7113 11.6665 11.6667 12.7112 11.6667 13.9998C11.6667 15.2885 12.7113 16.3332 14 16.3332Z" stroke="black" stroke-width="2.33333" stroke-linecap="round" stroke-linejoin="round"/>
</svg>
