<svg width="28" height="28" viewBox="0 0 28 28" fill="none" xmlns="http://www.w3.org/2000/svg">
<path d="M18.0565 15.0386L19.824 24.9856C19.8438 25.1027 19.8274 25.2231 19.7769 25.3306C19.7264 25.4382 19.6443 25.5277 19.5416 25.5873C19.4389 25.647 19.3204 25.6738 19.202 25.6642C19.0835 25.6547 18.9709 25.6092 18.879 25.5339L14.7023 22.3991C14.5007 22.2484 14.2558 22.167 14.0041 22.167C13.7524 22.167 13.5075 22.2484 13.3058 22.3991L9.12218 25.5327C9.03039 25.6079 8.91785 25.6533 8.79959 25.6629C8.68133 25.6724 8.56297 25.6457 8.46029 25.5863C8.35761 25.5268 8.2755 25.4375 8.22492 25.3301C8.17434 25.2228 8.15768 25.1026 8.17718 24.9856L9.94351 15.0386" stroke="white" stroke-width="2.33333" stroke-linecap="round" stroke-linejoin="round"/>
<path d="M14 16.3335C17.866 16.3335 21 13.1995 21 9.3335C21 5.4675 17.866 2.3335 14 2.3335C10.134 2.3335 7 5.4675 7 9.3335C7 13.1995 10.134 16.3335 14 16.3335Z" stroke="white" stroke-width="2.33333" stroke-linecap="round" stroke-linejoin="round"/>
</svg>
