<svg width="28" height="28" viewBox="0 0 28 28" fill="none" xmlns="http://www.w3.org/2000/svg">
<path d="M18.0565 15.0386L19.824 24.9856C19.8438 25.1027 19.8274 25.2231 19.7769 25.3306C19.7264 25.4382 19.6443 25.5277 19.5416 25.5873C19.4388 25.647 19.3203 25.6738 19.2019 25.6642C19.0835 25.6547 18.9709 25.6092 18.879 25.5339L14.7023 22.3991C14.5007 22.2484 14.2558 22.167 14.0041 22.167C13.7524 22.167 13.5075 22.2484 13.3058 22.3991L9.12217 25.5327C9.03037 25.6079 8.91784 25.6533 8.79958 25.6629C8.68132 25.6724 8.56295 25.6457 8.46027 25.5863C8.3576 25.5268 8.27549 25.4375 8.22491 25.3301C8.17432 25.2228 8.15767 25.1026 8.17717 24.9856L9.9435 15.0386" stroke="black" stroke-width="2.33333" stroke-linecap="round" stroke-linejoin="round"/>
<path d="M14 16.3335C17.866 16.3335 21 13.1995 21 9.3335C21 5.4675 17.866 2.3335 14 2.3335C10.134 2.3335 7 5.4675 7 9.3335C7 13.1995 10.134 16.3335 14 16.3335Z" stroke="black" stroke-width="2.33333" stroke-linecap="round" stroke-linejoin="round"/>
</svg>
