<svg width="28" height="27" viewBox="0 0 28 27" fill="none" xmlns="http://www.w3.org/2000/svg">
<path d="M25.3203 0H2.24219C0.984375 0 0 1.03906 0 2.24219V24.3359C0 25.5938 1.03906 26.5781 2.24219 26.5781H25.3203C26.5781 26.5781 27.5625 25.5391 27.5625 24.3359V2.24219C27.5625 1.03906 26.5781 0 25.3203 0ZM25.375 24.3359C25.375 24.3906 25.3203 24.3906 25.3203 24.3906H2.24219C2.1875 24.3906 2.1875 24.3359 2.1875 24.3359V2.24219C2.1875 2.1875 2.24219 2.1875 2.24219 2.1875H25.3203C25.375 2.1875 25.375 2.24219 25.375 2.24219V24.3359Z" fill="white"/>
<path d="M13.0703 9.73438C13.0703 8.14844 11.8125 6.89062 10.2266 6.89062C8.64063 6.89062 7.38281 8.14844 7.38281 9.73438C7.38281 11.3203 8.64063 12.5781 10.2266 12.5781C11.8125 12.5781 13.0703 11.3203 13.0703 9.73438ZM9.51563 9.73438C9.51563 9.35156 9.78906 9.07812 10.1719 9.07812C10.5547 9.07812 10.8281 9.35156 10.8281 9.73438C10.8281 10.1172 10.5547 10.3906 10.1719 10.3906C9.78906 10.3906 9.51563 10.1172 9.51563 9.73438Z" fill="white"/>
<path d="M17.3906 14C15.8047 14 14.5469 15.2578 14.5469 16.8438C14.5469 18.4297 15.8047 19.6875 17.3906 19.6875C18.9766 19.6875 20.2344 18.4297 20.2344 16.8438C20.2344 15.2578 18.9219 14 17.3906 14ZM17.3906 17.5C17.0078 17.5 16.7344 17.2266 16.7344 16.8438C16.7344 16.4609 17.0078 16.1875 17.3906 16.1875C17.7734 16.1875 18.0469 16.4609 18.0469 16.8438C18.0469 17.2266 17.7187 17.5 17.3906 17.5Z" fill="white"/>
<path d="M17.2265 10.8827C17.6094 10.4452 17.664 9.78892 17.2265 9.35142C16.8437 8.9686 16.0781 8.91392 15.6953 9.35142C14 11.4295 12.25 13.5077 10.5547 15.5858C10.3359 15.8592 10.0625 16.1874 9.84372 16.4608C9.46091 16.8983 9.40622 17.5545 9.84372 17.992C10.2265 18.3749 10.9922 18.4295 11.375 17.992C13.0703 15.9139 14.8203 13.8358 16.5156 11.7577C16.7344 11.4842 17.0078 11.2108 17.2265 10.8827Z" fill="white"/>
<path d="M22.4219 3.60938C20.9453 3.60938 19.4688 3.60938 17.9922 3.60938C17.7734 3.60938 17.5547 3.60938 17.3906 3.60938C16.8437 3.60938 16.2969 4.10156 16.2969 4.70312C16.2969 5.30469 16.7891 5.79688 17.3906 5.79688H21.8203H22.4219C22.9687 5.79688 23.5156 5.30469 23.5156 4.70312C23.4609 4.10156 23.0234 3.60938 22.4219 3.60938Z" fill="white"/>
</svg>
