<svg width="51" height="38" viewBox="0 0 51 38" fill="none" xmlns="http://www.w3.org/2000/svg">
<path d="M27.3047 37.3828L25.8984 34.9805C31.3672 32.0898 35.0586 29.5117 36.9727 27.2461C38.2227 25.7227 38.8477 24.2773 38.8477 22.9102C38.8477 21.543 37.8516 19.9219 35.8594 18.0469C33.8281 16.1719 32.4609 14.5508 31.7578 13.1836C31.25 12.207 30.9961 11.0742 30.9961 9.78516C30.9961 7.16797 31.9336 4.92187 33.8086 3.04687C35.6836 1.17188 38.0078 0.234375 40.7812 0.234375C43.5156 0.234375 45.8203 1.23047 47.6953 3.22266C49.5312 5.25391 50.4492 7.83203 50.4492 10.957C50.4492 15.8008 48.9648 20.1562 45.9961 24.0234C42.0508 29.1016 35.8203 33.5547 27.3047 37.3828ZM1.46484 37.3828L0 34.8047C5.58594 31.875 9.25781 29.3555 11.0156 27.2461C12.2266 25.7617 12.832 24.2578 12.832 22.7344C12.832 21.3281 11.7578 19.6484 9.60938 17.6953C6.60156 15 5.09766 12.3437 5.09766 9.72656C5.09766 7.10937 6.05469 4.82422 7.96875 2.87109C9.84375 0.957031 12.0703 0 14.6484 0C17.3047 0 19.6289 1.05469 21.6211 3.16406C23.6133 5.3125 24.6094 7.92969 24.6094 11.0156C24.6094 15.8594 22.9688 20.3516 19.6875 24.4922C15.5469 29.8047 9.47266 34.1016 1.46484 37.3828Z" fill="white"/>
</svg>
