<svg width="33" height="33" viewBox="0 0 33 33" fill="none" xmlns="http://www.w3.org/2000/svg">
<path d="M32.8 19.8152V22.5486C32.8 23.8196 31.9253 24.8787 30.75 25.1862V25.8627C30.75 28.9309 28.249 31.4319 25.1808 31.4319H20.377C20.09 32.2246 19.3383 32.7986 18.45 32.7986H14.35C13.2225 32.7986 12.3 31.8761 12.3 30.7486C12.3 29.6211 13.2225 28.6986 14.35 28.6986H18.45C19.3383 28.6986 20.09 29.2726 20.377 30.0652H25.1808C27.4973 30.0652 29.3833 28.1792 29.3833 25.8627V25.2819H28.0167C27.6408 25.2819 27.3333 24.9744 27.3333 24.5986V17.7652C27.3333 17.3894 27.6408 17.0819 28.0167 17.0819H29.3833V13.6652C29.3833 10.3852 28.0372 7.3034 25.5908 4.9869C22.7413 2.26723 18.778 0.982563 14.7327 1.4609C8.282 2.23306 3.41667 7.6109 3.41667 13.9727V17.0819H4.78333C5.15917 17.0819 5.46667 17.3894 5.46667 17.7652V24.5986C5.46667 24.9744 5.15917 25.2819 4.78333 25.2819H2.73333C1.22317 25.2819 0 24.0587 0 22.5486V19.8152C0 18.5442 0.874667 17.4851 2.05 17.1776V13.9727C2.05 6.92073 7.43467 0.955229 14.5687 0.107896C19.0172 -0.418271 23.3837 0.99623 26.5338 3.99606C29.2535 6.57223 30.75 10.0026 30.75 13.6652V17.1776C31.9253 17.4851 32.8 18.5442 32.8 19.8152Z" fill="black"/>
<path d="M24.6 16.5217V6.14867C24.6 5.77283 24.2925 5.46533 23.9167 5.46533H12.9833V16.3987H23.9167C24.1558 16.3987 24.3813 16.4397 24.6 16.5217Z" fill="black"/>
<path d="M11.6167 16.3987V5.46533H10.25C9.1225 5.46533 8.2 6.38783 8.2 7.51533V17.451C8.92433 16.8018 9.881 16.3987 10.9333 16.3987H11.6167Z" fill="black"/>
<path d="M24.518 22.8696C24.641 22.651 24.6273 22.3776 24.4838 22.1726C23.7253 21.0315 23.7253 19.9655 24.4838 18.8243C24.6273 18.6193 24.641 18.346 24.518 18.1273C24.4018 17.9018 24.1695 17.7651 23.9167 17.7651H10.9333C9.42316 17.7651 8.2 18.9883 8.2 20.4985C8.2 22.0086 9.42316 23.2318 10.9333 23.2318H23.9167C24.1695 23.2318 24.4018 23.0951 24.518 22.8696Z" fill="black"/>
</svg>
