<svg width="40" height="40" viewBox="0 0 40 40" fill="none" xmlns="http://www.w3.org/2000/svg">
<path d="M20 0.5C30.7696 0.5 39.5 9.23045 39.5 20C39.5 30.7696 30.7696 39.5 20 39.5C9.23045 39.5 0.5 30.7696 0.5 20C0.5 9.23045 9.23045 0.5 20 0.5Z" fill="white" fill-opacity="0.1"/>
<path d="M20 0.5C30.7696 0.5 39.5 9.23045 39.5 20C39.5 30.7696 30.7696 39.5 20 39.5C9.23045 39.5 0.5 30.7696 0.5 20C0.5 9.23045 9.23045 0.5 20 0.5Z" stroke="white"/>
<path d="M28.3334 13.3337C28.3334 13.3337 27.75 15.0837 26.6667 16.167C28 24.5003 18.8334 30.5837 11.6667 25.8337C13.5 25.917 15.3334 25.3337 16.6667 24.167C12.5 22.917 10.4167 18.0003 12.5 14.167C14.3334 16.3337 17.1667 17.5837 20 17.5003C19.25 14.0003 23.3334 12.0003 25.8334 14.3337C26.75 14.3337 28.3334 13.3337 28.3334 13.3337Z" stroke="white" stroke-width="1.66667" stroke-linecap="round" stroke-linejoin="round"/>
</svg>
